<svg id="Слой_1" data-name="Слой 1" xmlns="http://www.w3.org/2000/svg" xmlns:xlink="http://www.w3.org/1999/xlink" viewBox="0 0 30.68 43.81"><defs><style>.cls-1{fill:none;}.cls-2{clip-path:url(#clip-path);}</style><clipPath id="clip-path" transform="translate(-667 -362.11)"><rect class="cls-1" x="667" y="362" width="30.96" height="44.88"/></clipPath></defs><title>локация</title><g class="cls-2"><path d="M682.48,371.72a5.6,5.6,0,1,0,5.6,5.6,5.61,5.61,0,0,0-5.6-5.6Zm0,9.6a4,4,0,1,1,4-4,4,4,0,0,1-4,4Zm0,0" transform="translate(-667 -362.11)"/><path d="M693.19,366.61a15.35,15.35,0,0,0-21.7,0c-5.36,5.36-6,15.45-1.44,21.56l12.29,17.75,12.27-17.73c4.61-6.14,3.94-16.22-1.42-21.59Zm.13,20.65-11,15.85-11-15.87c-4.16-5.55-3.56-14.66,1.28-19.5a13.75,13.75,0,0,1,19.43,0c4.84,4.84,5.44,14,1.26,19.52Zm0,0" transform="translate(-667 -362.11)"/></g></svg>