<svg id="Capa_1" data-name="Capa 1" xmlns="http://www.w3.org/2000/svg" viewBox="0 0 372.96 372.96"><title>clock</title><path d="M256,69.52C153,69.52,69.52,153,69.52,256S153,442.48,256,442.48,442.48,359,442.48,256,358.94,69.65,256,69.52ZM393.36,264h32.8A170.4,170.4,0,0,1,264,426.08v-32.8a8,8,0,1,0-16,0v32.8A170.4,170.4,0,0,1,85.92,264h32.8a8,8,0,1,0,0-16H85.92A170.4,170.4,0,0,1,248,85.92v32.8a8,8,0,1,0,16,0V85.92A170.4,170.4,0,0,1,426.08,248h-32.8a8,8,0,1,0,0,16Z" transform="translate(-69.52 -69.52)"/><path d="M264,252.72V172a8,8,0,0,0-16,0v84a8,8,0,0,0,2.32,5.6l78.64,80a8,8,0,1,0,11.44-11.2h0Z" transform="translate(-69.52 -69.52)"/></svg>