<svg id="Capa_1" data-name="Capa 1" xmlns="http://www.w3.org/2000/svg" viewBox="0 0 263.39 376.08"><title>телефон</title><path d="M337.2,79.36H178.88A51.52,51.52,0,0,0,141,93a53.2,53.2,0,0,0-14,39.44V402.24c0,39.12,27.44,53.12,53.12,53.12h157c39.12,0,53.12-27.44,53.12-53.12V132.4C390.32,93.28,362.88,79.36,337.2,79.36ZM139,149.12h239.2V358.4H139ZM337.2,443.36h-157c-12.32,0-41.12-4-41.12-41.12v-32h239.2v32C378.32,414.56,374.24,443.36,337.2,443.36ZM378.32,137.2H139v-4.72a41.84,41.84,0,0,1,10.48-30.88,40.48,40.48,0,0,1,29.92-10.24H337.2c12.32,0,41.12,4,41.12,41.12Z" transform="translate(-126.93 -79.28)"/><path d="M277.6,108.64H240a6,6,0,0,0,0,12h37.6a6,6,0,0,0,0-12Z" transform="translate(-126.93 -79.28)"/><path d="M258.64,381.6A26.32,26.32,0,1,0,285,408,26.32,26.32,0,0,0,258.64,381.6Zm0,40.72a14.36,14.36,0,1,0,0-.08h0Z" transform="translate(-126.93 -79.28)"/></svg>