<svg id="Слой_1" data-name="Слой 1" xmlns="http://www.w3.org/2000/svg" viewBox="0 0 56.57 56.57"><defs><style>.cls-1{fill:#c69c67;}</style></defs><title>фейсбук_хов</title><path class="cls-1" d="M919.64,356h13.58c8.48,0,14.64,6.15,14.65,14.6q0,13.64,0,27.27c0,8.54-6.15,14.67-14.69,14.68H906c-8.56,0-14.7-6.13-14.71-14.66q0-13.64,0-27.27c0-8.47,6.16-14.61,14.63-14.62Zm-.06,51.86h13.36c6.26,0,10.24-4,10.24-10.18q0-13.41,0-26.83c0-6.2-3.94-10.14-10.14-10.15q-13.47,0-26.94,0c-6.09,0-10.07,4-10.07,10.13q0,13.47,0,26.94c0,6.13,4,10.08,10.09,10.1Z" transform="translate(-891.3 -356)"/><path class="cls-1" d="M935.62,367.29H930c-6.35,0-10.46,4.21-10.46,10.73V383h-5.69a.89.89,0,0,0-.89.89V391a.89.89,0,0,0,.89.89h5.69V410a.89.89,0,0,0,.89.89h7.42a.89.89,0,0,0,.89-.89V391.91h6.65a.89.89,0,0,0,.89-.89v-7.17a.9.9,0,0,0-.26-.63.89.89,0,0,0-.63-.26H928.7v-4.2c0-2,.48-3,3.11-3h3.81a.89.89,0,0,0,.89-.89v-6.66a.89.89,0,0,0-.89-.89Zm0,0" transform="translate(-891.3 -356)"/></svg>