<svg id="Слой_1" data-name="Слой 1" xmlns="http://www.w3.org/2000/svg" viewBox="0 0 56.57 56.57"><defs><style>.cls-1{fill:#fff;}</style></defs><title>инстаграм_акт</title><path class="cls-1" d="M764.64,356h13.58c8.48,0,14.64,6.15,14.65,14.6q0,13.64,0,27.27c0,8.54-6.15,14.67-14.69,14.68H751c-8.56,0-14.7-6.13-14.71-14.66q0-13.64,0-27.27c0-8.47,6.16-14.61,14.63-14.62Zm-.06,51.86h13.36c6.26,0,10.24-4,10.24-10.18q0-13.41,0-26.83c0-6.2-3.94-10.14-10.14-10.15q-13.47,0-26.94,0c-6.09,0-10.07,4-10.07,10.13q0,13.47,0,26.94c0,6.13,4,10.08,10.09,10.1Z" transform="translate(-736.3 -356)"/><path class="cls-1" d="M764.63,398.42a14.14,14.14,0,1,1,14.1-14.14A14.16,14.16,0,0,1,764.63,398.42Zm0-23.56a9.43,9.43,0,1,0,9.41,9.42A9.45,9.45,0,0,0,764.61,374.86Z" transform="translate(-736.3 -356)"/><path class="cls-1" d="M779.88,365.46a3.44,3.44,0,0,1,3.54,3.44,3.51,3.51,0,0,1-3.52,3.59,3.56,3.56,0,0,1-3.51-3.52A3.51,3.51,0,0,1,779.88,365.46Z" transform="translate(-736.3 -356)"/></svg>