<svg id="Слой_1" data-name="Слой 1" xmlns="http://www.w3.org/2000/svg" viewBox="0 0 64.05 56.57"><defs><style>.cls-1{fill:#fff;}</style></defs><title>почта_акт</title><path class="cls-1" d="M841.26,356h21.05c8.48,0,14.64,6.15,14.65,14.6q0,13.64,0,27.27c0,8.54-6.15,14.67-14.69,14.68H827.64c-8.56,0-14.7-6.13-14.71-14.66q0-13.64,0-27.27c0-8.47,6.16-14.61,14.63-14.62Zm-.06,51.86H862c6.26,0,10.24-4,10.24-10.18q0-13.41,0-26.83c0-6.2-3.94-10.14-10.14-10.15-9,0-25.43,0-34.41,0-6.09,0-10.07,4-10.07,10.13q0,13.47,0,26.94c0,6.13,4,10.08,10.09,10.1Z" transform="translate(-812.92 -356)"/><path class="cls-1" d="M844.95,390.27a2.8,2.8,0,0,1-1.61-.51L815.2,370.15a2.8,2.8,0,1,1,3.21-4.59l26.53,18.49,27-19.14a2.8,2.8,0,0,1,3.21,4.59l-28.65,20.26A2.8,2.8,0,0,1,844.95,390.27Z" transform="translate(-812.92 -356)"/></svg>